<svg xmlns="http://www.w3.org/2000/svg" viewBox="0 0 402.59 403"><defs><style>.cls-1{fill:none;stroke:#717273;stroke-miterlimit:10;stroke-width:21px;}</style></defs><g id="Layer_2" data-name="Layer 2"><g id="Layer_1-2" data-name="Layer 1"><g id="Layer_2-2" data-name="Layer 2"><g id="Layer_1-2-2" data-name="Layer 1-2"><path class="cls-1" d="M10.79,130.22V14.7a3.47,3.47,0,0,1,3.46-3.48H129.79"/><path class="cls-1" d="M392.09,273.52l-.58,115.53A3.47,3.47,0,0,1,388,392.5h0l-115.52-.57"/><path class="cls-1" d="M129.47,391.8H14a3.47,3.47,0,0,1-3.47-3.47h0V272.8"/><path class="cls-1" d="M272.77,10.5l115.52.57a3.47,3.47,0,0,1,3.46,3.49l-.58,115.53"/><path class="cls-1" d="M81.91,201.06l119,.59-.59,119"/><path class="cls-1" d="M320.31,200.94h-119v-119"/></g></g></g></g></svg>