<svg xmlns="http://www.w3.org/2000/svg" xmlns:xlink="http://www.w3.org/1999/xlink" viewBox="0 0 130 76" fill="#fff" fill-rule="evenodd" stroke="#000" stroke-linecap="round" stroke-linejoin="round"><use xlink:href="#A" x=".5" y=".5"/><symbol id="A" overflow="visible"><use xlink:href="#C" stroke="none"/><use xlink:href="#C" stroke-linejoin="miter" fill="none" stroke-width=".787"/></symbol><defs ><path id="C" d="M44.518 8.564c-22.43-4.33-34.63 7.083-32.662 17.315l.394.393C-5.46 29.42-1.13 50.278 7.527 50.278l.787-.394c-1.968 9.838 18.496 20.07 29.908 14.954l.787-.787c4.33 8.657 18.89 10.232 33.056 10.625 12.593.394 20.07-.787 25.186-6.296l.787.394c20.07 1.574 29.12-12.2 24.792-22.037l1.18-.394c6.7-1.968 7.477-17.708-3.935-19.676v-.787c5.116-10.232-6.7-20.07-23.61-18.102l-1.18-.394C83.477-3.635 49.24-1.668 45.305 8.958z"/></defs></svg>