 <svg xmlns="http://www.w3.org/2000/svg" viewBox="0 0 400 401"><defs><style>.cls-1,.cls-2{fill:none;stroke-miterlimit:10;}.cls-1{stroke:#e0e0e0;}.cls-2{stroke:#cbcbcb;stroke-width:2px;}</style></defs><g id="Layer_1" data-name="Layer 1"><rect class="cls-1" x="0.5" y="1.5" width="33.25" height="33.25"/><rect class="cls-1" x="33.75" y="1.5" width="33.25" height="33.25"/><rect class="cls-1" x="67" y="1.5" width="33.25" height="33.25"/><rect class="cls-1" x="100.25" y="1.5" width="33.25" height="33.25"/><rect class="cls-1" x="133.5" y="1.5" width="33.25" height="33.25"/><rect class="cls-1" x="166.75" y="1.5" width="33.25" height="33.25"/><rect class="cls-1" x="200" y="1.5" width="33.25" height="33.25"/><rect class="cls-1" x="233.25" y="1.5" width="33.25" height="33.25"/><rect class="cls-1" x="266.5" y="1.5" width="33.25" height="33.25"/><rect class="cls-1" x="299.75" y="1.5" width="33.25" height="33.25"/><rect class="cls-1" x="333" y="1.5" width="33.25" height="33.25"/><rect class="cls-1" x="366.25" y="1.5" width="33.25" height="33.25"/><rect class="cls-1" x="0.5" y="34.75" width="33.25" height="33.25"/><rect class="cls-1" x="33.75" y="34.75" width="33.25" height="33.25"/><rect class="cls-1" x="67" y="34.75" width="33.25" height="33.25"/><rect class="cls-1" x="100.25" y="34.75" width="33.25" height="33.25"/><rect class="cls-1" x="133.5" y="34.75" width="33.25" height="33.25"/><rect class="cls-1" x="166.75" y="34.75" width="33.25" height="33.25"/><rect class="cls-1" x="200" y="34.75" width="33.25" height="33.25"/><rect class="cls-1" x="233.25" y="34.75" width="33.25" height="33.25"/><rect class="cls-1" x="266.5" y="34.75" width="33.25" height="33.25"/><rect class="cls-1" x="299.75" y="34.75" width="33.25" height="33.25"/><rect class="cls-1" x="333" y="34.75" width="33.25" height="33.25"/><rect class="cls-1" x="366.25" y="34.75" width="33.25" height="33.25"/><rect class="cls-1" x="0.5" y="68" width="33.25" height="33.25"/><rect class="cls-1" x="33.75" y="68" width="33.25" height="33.25"/><rect class="cls-1" x="67" y="68" width="33.25" height="33.25"/><rect class="cls-1" x="100.25" y="68" width="33.25" height="33.25"/><rect class="cls-1" x="133.5" y="68" width="33.25" height="33.25"/><rect class="cls-1" x="166.75" y="68" width="33.25" height="33.25"/><rect class="cls-1" x="200" y="68" width="33.25" height="33.25"/><rect class="cls-1" x="233.25" y="68" width="33.25" height="33.25"/><rect class="cls-1" x="266.5" y="68" width="33.25" height="33.25"/><rect class="cls-1" x="299.75" y="68" width="33.25" height="33.25"/><rect class="cls-1" x="333" y="68" width="33.25" height="33.25"/><rect class="cls-1" x="366.25" y="68" width="33.25" height="33.25"/><rect class="cls-1" x="0.5" y="101.25" width="33.25" height="33.25"/><rect class="cls-1" x="33.75" y="101.25" width="33.25" height="33.25"/><rect class="cls-1" x="67" y="101.25" width="33.25" height="33.25"/><rect class="cls-1" x="100.25" y="101.25" width="33.25" height="33.25"/><rect class="cls-1" x="133.5" y="101.25" width="33.25" height="33.25"/><rect class="cls-1" x="166.75" y="101.25" width="33.25" height="33.25"/><rect class="cls-1" x="200" y="101.25" width="33.25" height="33.25"/><rect class="cls-1" x="233.25" y="101.25" width="33.25" height="33.25"/><rect class="cls-1" x="266.5" y="101.25" width="33.25" height="33.25"/><rect class="cls-1" x="299.75" y="101.25" width="33.25" height="33.25"/><rect class="cls-1" x="333" y="101.25" width="33.25" height="33.25"/><rect class="cls-1" x="366.25" y="101.25" width="33.25" height="33.25"/><rect class="cls-1" x="0.5" y="134.5" width="33.25" height="33.25"/><rect class="cls-1" x="33.75" y="134.5" width="33.25" height="33.25"/><rect class="cls-1" x="67" y="134.5" width="33.25" height="33.25"/><rect class="cls-1" x="100.25" y="134.5" width="33.25" height="33.25"/><rect class="cls-1" x="133.5" y="134.5" width="33.25" height="33.25"/><rect class="cls-1" x="166.75" y="134.5" width="33.25" height="33.25"/><rect class="cls-1" x="200" y="134.5" width="33.25" height="33.25"/><rect class="cls-1" x="233.25" y="134.5" width="33.25" height="33.25"/><rect class="cls-1" x="266.5" y="134.5" width="33.25" height="33.25"/><rect class="cls-1" x="299.75" y="134.5" width="33.25" height="33.25"/><rect class="cls-1" x="333" y="134.5" width="33.25" height="33.25"/><rect class="cls-1" x="366.25" y="134.5" width="33.25" height="33.25"/><rect class="cls-1" x="0.5" y="167.75" width="33.25" height="33.25"/><rect class="cls-1" x="33.75" y="167.75" width="33.25" height="33.25"/><rect class="cls-1" x="67" y="167.75" width="33.25" height="33.25"/><rect class="cls-1" x="100.25" y="167.75" width="33.25" height="33.25"/><rect class="cls-1" x="133.5" y="167.75" width="33.25" height="33.25"/><rect class="cls-1" x="166.75" y="167.75" width="33.25" height="33.25"/><rect class="cls-1" x="200" y="167.75" width="33.25" height="33.25"/><rect class="cls-1" x="233.25" y="167.75" width="33.25" height="33.25"/><rect class="cls-1" x="266.5" y="167.75" width="33.25" height="33.25"/><rect class="cls-1" x="299.75" y="167.75" width="33.25" height="33.25"/><rect class="cls-1" x="333" y="167.75" width="33.25" height="33.25"/><rect class="cls-1" x="366.25" y="167.75" width="33.25" height="33.25"/><rect class="cls-1" x="0.5" y="201" width="33.25" height="33.25"/><rect class="cls-1" x="33.75" y="201" width="33.25" height="33.25"/><rect class="cls-1" x="67" y="201" width="33.25" height="33.25"/><rect class="cls-1" x="100.25" y="201" width="33.25" height="33.25"/><rect class="cls-1" x="133.5" y="201" width="33.25" height="33.25"/><rect class="cls-1" x="166.75" y="201" width="33.25" height="33.25"/><rect class="cls-1" x="200" y="201" width="33.25" height="33.25"/><rect class="cls-1" x="233.25" y="201" width="33.25" height="33.25"/><rect class="cls-1" x="266.5" y="201" width="33.25" height="33.25"/><rect class="cls-1" x="299.75" y="201" width="33.25" height="33.25"/><rect class="cls-1" x="333" y="201" width="33.25" height="33.25"/><rect class="cls-1" x="366.25" y="201" width="33.25" height="33.25"/><rect class="cls-1" x="0.5" y="234.25" width="33.25" height="33.25"/><rect class="cls-1" x="33.75" y="234.25" width="33.25" height="33.25"/><rect class="cls-1" x="67" y="234.25" width="33.25" height="33.25"/><rect class="cls-1" x="100.25" y="234.25" width="33.25" height="33.25"/><rect class="cls-1" x="133.5" y="234.25" width="33.25" height="33.25"/><rect class="cls-1" x="166.75" y="234.25" width="33.25" height="33.25"/><rect class="cls-1" x="200" y="234.25" width="33.25" height="33.25"/><rect class="cls-1" x="233.25" y="234.25" width="33.25" height="33.25"/><rect class="cls-1" x="266.5" y="234.25" width="33.25" height="33.25"/><rect class="cls-1" x="299.75" y="234.25" width="33.25" height="33.25"/><rect class="cls-1" x="333" y="234.25" width="33.25" height="33.25"/><rect class="cls-1" x="366.25" y="234.25" width="33.25" height="33.25"/><rect class="cls-1" x="0.5" y="267.5" width="33.25" height="33.25"/><rect class="cls-1" x="33.75" y="267.5" width="33.25" height="33.25"/><rect class="cls-1" x="67" y="267.5" width="33.25" height="33.25"/><rect class="cls-1" x="100.25" y="267.5" width="33.25" height="33.25"/><rect class="cls-1" x="133.5" y="267.5" width="33.25" height="33.25"/><rect class="cls-1" x="166.75" y="267.5" width="33.25" height="33.25"/><rect class="cls-1" x="200" y="267.5" width="33.25" height="33.25"/><rect class="cls-1" x="233.25" y="267.5" width="33.25" height="33.25"/><rect class="cls-1" x="266.5" y="267.5" width="33.25" height="33.25"/><rect class="cls-1" x="299.75" y="267.5" width="33.25" height="33.25"/><rect class="cls-1" x="333" y="267.5" width="33.25" height="33.25"/><rect class="cls-1" x="366.25" y="267.5" width="33.25" height="33.25"/><rect class="cls-1" x="0.5" y="300.75" width="33.25" height="33.25"/><rect class="cls-1" x="33.75" y="300.75" width="33.25" height="33.25"/><rect class="cls-1" x="67" y="300.75" width="33.25" height="33.25"/><rect class="cls-1" x="100.25" y="300.75" width="33.25" height="33.25"/><rect class="cls-1" x="133.5" y="300.75" width="33.25" height="33.25"/><rect class="cls-1" x="166.75" y="300.75" width="33.25" height="33.25"/><rect class="cls-1" x="200" y="300.75" width="33.25" height="33.25"/><rect class="cls-1" x="233.25" y="300.75" width="33.25" height="33.25"/><rect class="cls-1" x="266.5" y="300.75" width="33.25" height="33.25"/><rect class="cls-1" x="299.75" y="300.75" width="33.25" height="33.25"/><rect class="cls-1" x="333" y="300.75" width="33.25" height="33.25"/><rect class="cls-1" x="366.25" y="300.75" width="33.25" height="33.25"/><rect class="cls-1" x="0.5" y="334" width="33.25" height="33.25"/><rect class="cls-1" x="33.75" y="334" width="33.25" height="33.25"/><rect class="cls-1" x="67" y="334" width="33.25" height="33.25"/><rect class="cls-1" x="100.25" y="334" width="33.25" height="33.25"/><rect class="cls-1" x="133.5" y="334" width="33.25" height="33.25"/><rect class="cls-1" x="166.75" y="334" width="33.25" height="33.25"/><rect class="cls-1" x="200" y="334" width="33.25" height="33.25"/><rect class="cls-1" x="233.25" y="334" width="33.25" height="33.25"/><rect class="cls-1" x="266.5" y="334" width="33.25" height="33.25"/><rect class="cls-1" x="299.75" y="334" width="33.25" height="33.25"/><rect class="cls-1" x="333" y="334" width="33.25" height="33.25"/><rect class="cls-1" x="366.25" y="334" width="33.25" height="33.25"/><rect class="cls-1" x="0.5" y="367.25" width="33.25" height="33.25"/><rect class="cls-1" x="33.75" y="367.25" width="33.25" height="33.25"/><rect class="cls-1" x="67" y="367.25" width="33.25" height="33.25"/><rect class="cls-1" x="100.25" y="367.25" width="33.25" height="33.25"/><rect class="cls-1" x="133.5" y="367.25" width="33.25" height="33.25"/><rect class="cls-1" x="166.75" y="367.25" width="33.25" height="33.25"/><rect class="cls-1" x="200" y="367.25" width="33.25" height="33.25"/><rect class="cls-1" x="233.25" y="367.25" width="33.25" height="33.25"/><rect class="cls-1" x="266.5" y="367.25" width="33.25" height="33.25"/><rect class="cls-1" x="299.75" y="367.25" width="33.25" height="33.25"/><rect class="cls-1" x="333" y="367.25" width="33.25" height="33.25"/><rect class="cls-1" x="366.25" y="367.25" width="33.25" height="33.25"/></g><g id="Layer_2" data-name="Layer 2"><line class="cls-2" x1="200" x2="200" y2="399.5"/><line class="cls-2" y1="201" x2="400" y2="201"/></g></svg>