<?xml version="1.0" encoding="utf-8"?>
<!-- Generator: Adobe Illustrator 24.3.0, SVG Export Plug-In . SVG Version: 6.00 Build 0)  -->
<svg version="1.1" id="Layer_1" xmlns="http://www.w3.org/2000/svg" xmlns:xlink="http://www.w3.org/1999/xlink" x="0px" y="0px"
	 viewBox="0 0 86.1 138.1" preserveAspectRatio="none" style="enable-background:new 0 0 86.1 138.1;" xml:space="preserve">
<style type="text/css">
	.st0{fill:#FCEA2B;}
	.st1{fill:none;stroke:#000000;stroke-width:4.167;stroke-linecap:round;stroke-linejoin:round;stroke-miterlimit:10;}
</style>
<symbol  id="A" viewBox="-43.6 -68.6 87.3 137.2" preserveAspectRatio="none">
	<path class="st0" d="M25.3-68L-41,3.1c-1.3,1.3-0.2,3.5,1.7,3.5H0.5l-35.6,57.4c-0.3,0.6,0.4,1.1,0.9,0.6L40.9-9.8
		c1.3-1.3,0.3-3.5-1.6-3.5H0.8L25.3-68L25.3-68z"/>
	<path class="st1" d="M25.3-66.5L-41,3c-1.3,1.3-0.2,3.5,1.7,3.5H0.5l-38.1,60.1l78.6-76c1.4-1.3,0.3-3.5-1.6-3.5H0.8L25.3-66.5z"/>
</symbol>
<use xlink:href="#A"  width="87.3" height="137.2" x="-43.6" y="-68.6" transform="matrix(0.8039 -0.4643 0.4643 0.8039 42.3548 66.2005)" style="overflow:visible;"/>
</svg>
