<svg xmlns="http://www.w3.org/2000/svg" xmlns:xlink="http://www.w3.org/1999/xlink" viewBox="0 0 104.167 104.167" fill="#fff" fill-rule="evenodd" stroke="#ff0000" stroke-linecap="round" stroke-linejoin="round"><use xlink:href="#A" x="2.083" y="2.083"/><symbol id="A" overflow="visible"><use xlink:href="#C" fill="#d0cfce" stroke="none" fill-rule="nonzero"/><g fill="none" stroke-width="4.167"><use xlink:href="#C"/><path d="M74.096 60.146c-.952.846-2.18 1.312-3.454 1.3a5.21 5.21 0 0 1-5.208-5.208V52.08v4.167-4.167a5.21 5.21 0 0 1 5.208-5.208 5.23 5.23 0 0 1 3.454 1.3M50.756 61.98a5.21 5.21 0 0 0 5.208-5.208v-4.167a5.21 5.21 0 0 0-5.208-5.208 5.21 5.21 0 0 0-5.208 5.208v4.167a5.21 5.21 0 0 0 5.208 5.208z"/><path d="M45.548 55.792v-18.75M23.82 58.246c0 2.063 1.775 3.733 3.967 3.733h3.173c2.188 0 3.967-1.67 3.967-3.733s-1.775-3.733-3.967-3.733h-3.173c-2.187 0-3.967 1.67-3.967 3.733z"/><path d="M24.66 49c.875-1.173 2.423-1.952 4.188-1.952h1.73c2.725 0 4.938 1.854 4.938 4.146v10.783"/></g></symbol><defs ><path id="C" d="M98 100H2A2.02 2.02 0 0 1 0 97.99V2A2.02 2.02 0 0 1 2.01 0H98A2.02 2.02 0 0 1 100 2.01V98a2.02 2.02 0 0 1-2.01 2.01z"/></defs></svg>