<svg xmlns="http://www.w3.org/2000/svg" viewBox="0 0 164.35 164.35"><defs><style>.cls-1{fill:#fff;}.cls-2{fill:#005e20;}</style></defs><g id="Layer_2" data-name="Layer 2"><g id="Layer_1-2" data-name="Layer 1"><path class="cls-1" d="M.12,109.63v-3H17v-2.84H.13v-3.06H17v-2.9H.16V94.71H17V91.88H.06V89.41c0-.87.69-.63,1.15-.64H17v-2.2H.32c-.13-.2-.21-.26-.21-.33-.26-2.76-.26-2.76,2.46-2.76H17V80.93H.14V77.86H17V75.63H.13v-3H17V69.76H.16V66.69H17V63.76H.15V60.7H17V57.84H.12v-3H17V52H.13V49H17V46.19H.16v-3H17V40.21H.15V37.13H17V34.28H.15V31.17h15.9c.68,0,1.07-.1,1.22-.9C18.64,23,23.12,18.53,30.42,17l.79-.14V.17h3V16.61c.2.13.26.2.33.21,2.52.28,2.52.27,2.52-2.21,0-4.39,0-8.79,0-13.18,0-1.09.27-1.55,1.39-1.4a13.07,13.07,0,0,0,1.67,0V15.26c0,1.63,0,1.63,1.61,1.62.39,0,.78,0,1.32-.06V15.33c0-4.59,0-9.18,0-13.78,0-1.26.39-1.64,1.55-1.48a12.57,12.57,0,0,0,1.53,0V15.19c0,1.72,0,1.72,1.77,1.69.31,0,.62-.05,1-.09V.17H52V16.79h2.75V15.48c0-4.68,0-9.35,0-14C54.7.33,55-.06,56.13.08a15.85,15.85,0,0,0,1.71,0v15c0,1.79,0,1.79,1.85,1.75.27,0,.54-.05,1-.09V.17H63.7v16.7a12.82,12.82,0,0,0,2.35-.05c.26-.05.57-.67.57-1,0-4.19,0-8.39,0-12.58v-3h3.08V16.68a2.54,2.54,0,0,0,.46.17c2.33.24,2.33.24,2.33-2.07V.09a15,15,0,0,1,2.54.06c.24,0,.53.68.54,1.06,0,4.63,0,9.26,0,13.9v1.7h2.17V.18h3.13V14.9c0,2.21.12,2.3,2.56,1.8V.17h3.08v14.9c0,2,0,2,2.18,1.68V.15h3.11V1.56c0,4.71,0,9.42,0,14.14,0,1.1.47,1.24,1.36,1.2s1.54.13,1.52-1.17c-.07-4.67,0-9.35,0-14,0-1.63,0-1.63,1.6-1.63h1.44V16.87a11,11,0,0,0,2.32-.05c.28-.07.59-.73.6-1.13,0-4.55,0-9.11,0-13.66,0-2.16-.37-1.95,2-2,.32,0,.63,0,1.07.08V16.87a9.39,9.39,0,0,0,2.21-.05c.29-.08.6-.73.6-1.12,0-4.67,0-9.35,0-14V.17h3.06V1.64c0,4.55,0,9.11,0,13.66,0,1.07.06,1.64,1.43,1.64s1.37-.71,1.37-1.69c0-4.56,0-9.11,0-13.67V.31a1.45,1.45,0,0,1,.39-.19c2.69-.25,2.69-.25,2.69,2.42V16.77h2.77V.16h3.06V16.8h2.87V.12h3.08V16.78h2.88V.16h3.07V16.8c8.27,1.36,13.05,6.09,14.56,14.36h16.47v3H147.78V37h16.48v3.1H147.77V43H164.3a16.54,16.54,0,0,1-.05,2.57c-.05.24-.69.54-1.06.54-4.59,0-9.19,0-13.78,0h-1.63v2.71H164.2V52H147.77v2.77H164.2v3.1H147.75v2.74c.44,0,.86.06,1.28.06,4.68,0,9.35,0,14,0,1,0,1.33.27,1.29,1.27-.08,2.15.13,1.84-1.89,1.84-4.43,0-8.87,0-13.3,0h-1.38v2.84h16.52a16.77,16.77,0,0,1,0,2.59c0,.24-.69.53-1.07.53-4.63,0-9.26,0-13.9,0h-1.5v2.82h1.45c4.6,0,9.19,0,13.78,0,.94,0,1.37.17,1.33,1.24-.09,2.17.14,1.85-1.86,1.86-4.44,0-8.87,0-13.31,0h-1.39v2.17h16.52a16.34,16.34,0,0,1,0,2.55c0,.24-.68.54-1.05.54-4.64,0-9.27,0-13.9,0h-1.52v2.57h1.43c4.64,0,9.27,0,13.9,0,1,0,1.25.27,1.22,1.22-.08,2.15.17,1.89-1.84,1.89-4.43,0-8.87,0-13.3,0h-1.44v2.19h1.46c4.55,0,9.11,0,13.66,0,1.15,0,1.62.28,1.46,1.45a12.65,12.65,0,0,0,0,1.64H147.79v2.83h1.4c4.63,0,9.26.06,13.9,0,1.36,0,1.23.69,1.23,1.56s.15,1.6-1.22,1.58c-4.6-.09-9.19,0-13.78,0h-1.53v2.91h1.42c4.64,0,9.27,0,13.9,0,1.37,0,1.21.72,1.22,1.58s.11,1.58-1.24,1.56c-4.63-.09-9.26,0-13.9,0h-1.4v2.8h16.42v3.11H147.75v2.74h16.48v3H147.78v2.85H164.3c0,.92,0,1.7,0,2.48s-.7.61-1.16.61c-4.64,0-9.27,0-13.91,0h-1.47v2.9h16.53v3H147.77v2.85h16.46v3.05H147.74c-.2.94-.35,1.8-.56,2.64a15.65,15.65,0,0,1-12.89,11.52c-.89.11-1.1.45-1.1,1.29,0,4.71,0,9.43,0,14.14v1.5h-3V147.63h-2.84v16.62h-3.07V147.64h-2.91v16.58h-3.08V147.61h-2.8v16.65h-3V147.6h-2.77v16.62H106.6V147.63h-2.85v16.63h-3V147.61H97.79v16.64h-3.1V147.62H91.87v16.61H88.81v-16.6H86.59v16.59h-3V147.63H80.93v16.64H77.86V147.59H75.62v16.67H72.56V147.61h-2.8v16.64H66.7V147.61H63.77v16.64H60.72V147.62H57.86v16.61h-3v-16.6H52.06v16.61H49V147.62H46.13v16.71a17.48,17.48,0,0,0-1.93,0c-.91.1-1.15-.27-1.15-1.15,0-4.72,0-9.43,0-14.15v-1.46H40.15v16.69h-3V147.59H34.3v16.66h-3c0-.4-.06-.82-.06-1.24,0-4.75,0-9.51,0-14.26,0-.94-.15-1.33-1.23-1.51a15.64,15.64,0,0,1-12.73-13c-.05-.35-.15-.69-.25-1.1H.14V130.1H17v-2.82H.14v-3H17v-3H.14v-3H17v-2.86H.14v-3.06H17v-2.75ZM144.64,82.22c0-16.3,0-32.6,0-48.89a16.2,16.2,0,0,0-.93-5.49c-1.9-5-6.58-7.94-12.37-7.94H32.68c-7.15.28-12.53,5.65-12.54,12.65q0,49.67,0,99.34a12.57,12.57,0,0,0,12.61,12.56q49.66,0,99.33,0a11.84,11.84,0,0,0,3-.38,12.57,12.57,0,0,0,9.59-12.59Q144.66,106.84,144.64,82.22Z"/><path class="cls-1" d="M24.13,82.22q0-21.81,0-43.62c0-6.79,3.94-12.25,10.17-14.06A15.14,15.14,0,0,1,38.42,24q43.93-.06,87.85,0a14.16,14.16,0,0,1,14.38,14.24q0,44,0,88a14.06,14.06,0,0,1-14.31,14.27q-44,0-88,0c-8.18,0-14.23-6.2-14.24-14.55Q24.1,104,24.13,82.22Zm58.23,55.12h43.39a14,14,0,0,0,3-.23A11.08,11.08,0,0,0,137.57,126q0-43.56,0-87.13c0-7.07-4.72-11.8-11.79-11.8H39c-7.1,0-11.83,4.69-11.83,11.76q0,43.44,0,86.89a13.83,13.83,0,0,0,.32,3.08,11,11,0,0,0,11.1,8.58Q60.49,137.36,82.36,137.34Z"/><path class="cls-2" d="M84.13,82.27c-.12-6.87-.39-13.74-.31-20.61.05-4.74.48-9.49.93-14.21a10.68,10.68,0,0,1,3.28-7c4.35-4.11,11.55-4.94,16.53-1.62a12.61,12.61,0,0,1,3.29,3.7,31.29,31.29,0,0,1,2.29,4.73,1.53,1.53,0,0,0,1.53,1,27.19,27.19,0,0,1,5.77.88c7.09,2.22,10.5,9,8.18,16.07A20.66,20.66,0,0,1,124,68.78c-.41.73-.33,1.16.34,1.57.44.27.85.6,1.3.86a13,13,0,0,1,1.7,21.16,22.35,22.35,0,0,1-2.54,1.79,1,1,0,0,0-.46,1.37,45,45,0,0,1,1.9,5.79c1.16,5.39-2.31,11.42-7.78,13.32a32.22,32.22,0,0,1-6.68,1.18c-.83.11-1.3.3-1.59,1.1-.35,1-.81,1.91-1.21,2.87-3.4,8.24-13.84,9.58-19.84,4.62a11,11,0,0,1-4.39-7.68c-.39-4.85-.73-9.71-.91-14.58-.12-3.31.07-6.63.1-9.94s0-6.63,0-9.94Zm3.68,9.54a6.91,6.91,0,0,0,5.69-4.57c.6-1.69.93-3.47,1.42-5.19.1-.35.27-.84.54-1a2.07,2.07,0,0,1,2.91,2c-.1,4.44-1.73,8.1-5.67,10.44-1.33.8-2.79,1.37-4.14,2.15a1.81,1.81,0,0,0-.84,1.21c-.17,3.55-.42,7.11-.29,10.66A46.13,46.13,0,0,0,88.52,117c1.31,5.26,5.07,7.46,10.41,6.63a9.61,9.61,0,0,0,7.89-9.5c0-4.37-3-7.85-7.63-8.63-.55-.1-1.11-.15-1.66-.25-1-.18-1.31-.89-1.42-1.81s.54-1.28,1.25-1.44a5.31,5.31,0,0,1,2.12-.2c4.2.73,7.57,2.67,9.44,6.7.45,1,.86,2,1.38,2.92a1.54,1.54,0,0,0,1,.75c7.74,1.14,12.37-4.25,11.37-10.77-.8-5.27-4.75-8.5-10.07-8.58a9.33,9.33,0,0,1-3.46-.7,1.13,1.13,0,0,1,0-2.18,8.77,8.77,0,0,1,3-.7,12.34,12.34,0,0,1,6.66,1.63,5.05,5.05,0,0,0,5.54-.36c3.41-2.3,4.93-7.46,3.46-11.59a8.89,8.89,0,0,0-9.59-5.75,28.07,28.07,0,0,1-5.26.34c-4.09-.15-7-2.43-9.24-5.65-.74-1-.49-1.48.75-2.41a1.36,1.36,0,0,1,2.22.33c.42.58.85,1.16,1.33,1.7a8.59,8.59,0,0,0,14.36-3,9.8,9.8,0,0,0-7.41-12.6,11.2,11.2,0,0,0-5.3.58c-1.53.44-2.28,0-2.67-1.49a16.72,16.72,0,0,1-.42-2.72c-.52-5.77-6.84-8.9-11.62-7.54-4.27,1.21-7.3,5-7.12,9a9,9,0,0,0,7.46,8.48,18.91,18.91,0,0,0,2.38.17A1.27,1.27,0,0,1,99,59.55c.22,1.66,0,2.12-1.69,2.29a8,8,0,0,1-3.41-.29,44.68,44.68,0,0,1-4.8-2.39l-1.26-.68Z"/><path class="cls-2" d="M41.5,94.75c-5.11-2.59-8.45-6.34-8.56-12.24s2.76-9.9,8.11-12.33c-.36-1-.71-1.85-1-2.74a18.22,18.22,0,0,1-1.27-8.22,11.74,11.74,0,0,1,10-10.07,29.17,29.17,0,0,1,4.77-.26c.75,0,1.11-.11,1.29-1,1.08-5.26,4.2-8.78,9.45-10,5.48-1.26,10.26.26,13.81,4.71A10,10,0,0,1,80,47.21a95.62,95.62,0,0,1,1.15,12.62c.09,15.45,0,30.91-.12,46.36a104.7,104.7,0,0,1-.9,11.45c-.87,7-7,10.11-12,10.21C61.5,128,56.29,124,55,118c-.11-.5-.22-1-.34-1.59-5.74.23-11-.84-14.19-6.14S38.58,99.86,41.5,94.75Zm35.68-22c-.38.08-.62.11-.83.18a8.47,8.47,0,0,0-5.94,7.15,21.42,21.42,0,0,1-.31,2.13c-.29,1.16-1.28,1.3-2.26,1.38s-1-.79-1.12-1.39a8.14,8.14,0,0,1,1.12-6.32,15.54,15.54,0,0,1,8-6.56,1.91,1.91,0,0,0,1.41-1.93c.1-4.39.29-8.78.18-13.17a27.83,27.83,0,0,0-1-6.84c-1.28-4.61-4.31-6.66-9.07-6.49a9.69,9.69,0,0,0-9.23,8.78c-.51,4.81,1.88,8,7,9.29,1,.26,2,.6,3,1s1,1,.62,1.83A2.42,2.42,0,0,1,65.85,63c-4.24-.71-7.67-2.63-9.67-6.63-.53-1.07-1.06-2.15-1.69-3.16a1.83,1.83,0,0,0-1.12-.76c-5.1-.9-10.18,2.43-11.12,7.23C41.16,65.29,44.11,70,49.56,71.18c1.79.41,3.63.6,5.42,1,1.48.31,1.84,1.08.94,2.29a3.23,3.23,0,0,1-2.06,1.15,9.28,9.28,0,0,1-3.3-.41c-1.81-.49-3.59-1.11-5.35-1.76a4.65,4.65,0,0,0-4.12.49c-3.54,2-5.36,7.15-4.1,11.48a8.51,8.51,0,0,0,9,6.12c1.87-.17,3.75-.29,5.62-.29a10.44,10.44,0,0,1,8.54,4.12,4.29,4.29,0,0,1,1,1.61c.13.73.19,1.81-.23,2.21s-1.51.29-2.21.07c-.53-.16-.92-.81-1.36-1.27a13.62,13.62,0,0,0-2.13-2.22,8.71,8.71,0,0,0-12.42,3.73,9,9,0,0,0,1.31,9.69c2.24,2.91,5.09,4.42,8.89,3.57,1.09-.25,2.2-.36,3.31-.52.94-.15,1.5.14,1.61,1.2s.41,2.12.53,3.19c.76,6.52,7.2,8.59,11.39,7.47a9.16,9.16,0,0,0,7.1-7.46c.72-3.65-.84-6.53-3.83-8.53a17.19,17.19,0,0,0-4.1-1.54c-.68-.23-1.43-.27-2.07-.56a1.86,1.86,0,0,1-1-2.34c.1-.37.93-.69,1.46-.78a10.08,10.08,0,0,1,7.44,2c.66.45,1.36.85,2.26,1.4Z"/></g></g></svg>